<?xml version="1.0" standalone="no"?><!DOCTYPE svg PUBLIC "-//W3C//DTD SVG 1.1//EN" "http://www.w3.org/Graphics/SVG/1.1/DTD/svg11.dtd"><svg t="1598622255952" class="icon" viewBox="0 0 1024 1024" version="1.1" xmlns="http://www.w3.org/2000/svg" p-id="4443" xmlns:xlink="http://www.w3.org/1999/xlink" width="200" height="200"><defs><style type="text/css"></style></defs><path d="M711.9 160.9c26.6 0 53 20.3 60.4 30.1l127.4 178.1-90 75.5-1.6-1.9-83.3-99.3v517.1c0 1.3-1.3 2.6-2.6 2.6H301.8c-1.3 0-2.6-1.3-2.6-2.6V343.4l-83.3 99.3-1.6 1.9-90-75.5 126.6-177c8.2-10.9 34.6-31.1 61.2-31.1h61c19.7 57.8 74.5 99.6 138.9 99.6s119.3-41.7 138.9-99.6h61m0-47.2H611.6c0 55-44.6 99.6-99.6 99.6-55 0-99.6-44.6-99.6-99.6H312.1c-44.9 0-84 30.4-98.8 49.8L66.3 369c-3.5 4.2-3 10.5 1.2 14l144.9 121.6c1.9 1.6 4.1 2.3 6.4 2.3 2.8 0 5.7-1.2 7.6-3.5L252 473v387.5c0 27.4 22.4 49.8 49.8 49.8h420.4c27.4 0 49.8-22.4 49.8-49.8V473l25.5 30.4c2 2.3 4.8 3.5 7.6 3.5 2.3 0 4.5-0.8 6.4-2.3l145-121.6c4.2-3.5 4.7-9.8 1.2-14l-147-205.4c-14.8-19.5-53.9-49.8-98.8-49.8z" fill="#e6e6e6" p-id="4444"></path></svg>